<svg version="1.1" id="Layer_1" xmlns="http://www.w3.org/2000/svg" xmlns:xlink="http://www.w3.org/1999/xlink" viewBox="-51.2 -51.2 614.40 614.40" xml:space="preserve" fill="#000000" stroke="#000000" stroke-width="0.00512"><g id="SVGRepo_bgCarrier" stroke-width="0"><path transform="translate(-51.2, -51.2), scale(38.4)" fill="#345965" d="M9.166.33a2.25 2.25 0 00-2.332 0l-5.25 3.182A2.25 2.25 0 00.5 5.436v5.128a2.25 2.25 0 001.084 1.924l5.25 3.182a2.25 2.25 0 002.332 0l5.25-3.182a2.25 2.25 0 001.084-1.924V5.436a2.25 2.25 0 00-1.084-1.924L9.166.33z" strokewidth="0"></path></g><g id="SVGRepo_tracerCarrier" stroke-linecap="round" stroke-linejoin="round" stroke="#CCCCCC" stroke-width="1.024"></g><g id="SVGRepo_iconCarrier"> <polygon style="fill:#84D993;" points="350.609,320 512,320 512,286.609 457.461,247.096 "></polygon> <path style="fill:#B9F291;" d="M456.348,230.957c-30.736,0-55.652,24.917-55.652,55.652H512 C512,255.873,487.083,230.957,456.348,230.957z"></path> <rect y="286.609" style="fill:#84D993;" width="87.93" height="33.391"></rect> <rect x="81.252" y="303.861" style="fill:#F6D76F;" width="274.922" height="49.53"></rect> <rect x="33.391" y="303.304" style="fill:#B9F291;" width="89.043" height="105.739"></rect> <rect x="311.652" y="302.191" style="fill:#84D993;" width="89.043" height="106.852"></rect> <polygon style="fill:#578C76;" points="149.148,211.478 217.043,320 400.696,320 400.696,286.609 "></polygon> <g> <polygon style="fill:#50BF94;" points="217.043,320 217.043,234.852 33.391,286.609 33.391,320 "></polygon> <path style="fill:#50BF94;" d="M162.504,146.922l54.539,139.687h183.652c0-56.221-25.264-106.552-65.059-140.23 C292.73,146.379,216.98,146.922,162.504,146.922z"></path> </g> <g> <path style="fill:#84D993;" d="M335.637,146.379c-31.99-27.088-73.381-43.422-118.594-43.422l-67.896,58.435l67.896,67.827 C271.519,229.218,317.938,194.715,335.637,146.379z"></path> <path style="fill:#84D993;" d="M217.043,286.609v-140.8c-54.476,0-80.139,0.57-118.594,0.57 c-39.795,33.678-65.058,84.009-65.058,140.23H217.043z"></path> </g> <path style="fill:#B9F291;" d="M217.043,229.218V102.957c-45.213,0-86.604,16.334-118.594,43.422 C116.149,194.715,162.568,229.218,217.043,229.218z"></path> </g></svg>